<svg xmlns="http://www.w3.org/2000/svg" xmlns:xlink="http://www.w3.org/1999/xlink" width="500" zoomAndPan="magnify" viewBox="0 0 375 374.999991" height="500" preserveAspectRatio="xMidYMid meet" version="1.0"><defs><clipPath id="ce9ebcdac3"><path d="M 5.042969 28 L 361 28 L 361 339 L 5.042969 339 Z M 5.042969 28 " clip-rule="nonzero"/></clipPath></defs><g clip-path="url(#ce9ebcdac3)"><path fill="#388e3c" d="M 325.847656 40.027344 C 360.617188 62.511719 370.574219 109.324219 348.089844 144.097656 L 244.261719 304.21875 C 221.777344 338.988281 174.960938 348.945312 140.269531 326.460938 C 131.839844 321 124.933594 314.175781 119.550781 306.386719 L 81.8125 306.386719 C 75.304688 306.386719 70.007812 301.085938 70.007812 294.582031 C 70.007812 288.078125 75.304688 282.777344 81.8125 282.777344 L 151.59375 282.777344 C 152.394531 282.777344 153.117188 282.855469 153.839844 283.015625 C 160.34375 283.015625 165.644531 277.71875 165.644531 271.214844 C 165.644531 264.707031 160.34375 259.410156 153.839844 259.410156 L 16.847656 259.410156 C 10.421875 259.410156 5.042969 254.109375 5.042969 247.605469 C 5.042969 241.101562 10.34375 235.800781 16.847656 235.800781 L 242.332031 235.800781 C 248.835938 235.800781 254.136719 230.5 254.136719 223.996094 C 254.136719 217.492188 248.835938 212.191406 242.332031 212.191406 L 132.882812 212.191406 C 126.378906 212.191406 121.078125 206.890625 121.078125 200.386719 C 121.078125 193.882812 126.378906 188.582031 132.882812 188.582031 L 206.597656 188.582031 C 213.101562 188.582031 218.402344 183.285156 218.402344 176.777344 C 218.402344 170.273438 213.101562 164.972656 206.597656 164.972656 L 134.890625 164.972656 C 128.386719 164.972656 123.085938 159.675781 123.085938 153.171875 C 123.085938 146.664062 128.386719 141.367188 134.890625 141.367188 L 170.625 141.367188 L 221.777344 62.351562 C 244.261719 27.5 291.074219 17.542969 325.847656 40.027344 Z M 64.867188 188.503906 C 58.363281 188.503906 53.0625 193.804688 53.0625 200.308594 C 53.0625 206.8125 58.363281 212.113281 64.867188 212.113281 L 92.007812 212.113281 C 98.433594 212.113281 103.8125 206.730469 103.8125 200.308594 C 103.8125 193.882812 98.511719 188.503906 92.007812 188.503906 Z M 203.789062 135.984375 C 221.855469 133.175781 240.484375 136.949219 256.144531 147.148438 C 271.882812 157.265625 282.964844 172.765625 287.785156 190.429688 L 326.890625 130.363281 C 341.824219 107.316406 335.160156 76.160156 312.035156 61.144531 C 288.988281 46.210938 257.832031 52.875 242.894531 75.921875 Z M 203.789062 135.984375 " fill-opacity="1" fill-rule="evenodd"/></g></svg>